<?xml version="1.0" encoding="UTF-8"?>
<svg version="1.1" xmlns="http://www.w3.org/2000/svg" width="400" height="600">
<path d="M0 0 C4.02588507 1.49956908 5.36730029 3.73660195 7.49609375 7.3828125 C8.13740234 8.46820313 8.77871094 9.55359375 9.43945312 10.671875 C10.09880859 11.81140625 10.75816406 12.9509375 11.4375 14.125 C12.74814675 16.35709456 14.05933321 18.58887231 15.37109375 20.8203125 C16.29897705 22.41214355 16.29897705 22.41214355 17.24560547 24.03613281 C18.77420936 26.61855018 20.35266634 29.1541238 21.97265625 31.6796875 C24 35 24 35 24 37 C24.66 37.33 25.32 37.66 26 38 C27.40080877 40.22962063 28.71730383 42.45415975 30 44.75 C30.35578125 45.37132812 30.7115625 45.99265625 31.078125 46.6328125 C32.98716178 50.00924322 34.66518702 53.35707291 36 57 C36.66 57 37.32 57 38 57 C38 57.99 38 58.98 38 60 C41.72614153 58.88145414 41.72614153 58.88145414 44 56 C45.56019179 55.33836311 47.14927836 54.74396388 48.75 54.1875 C54.63677833 51.91172692 57.75222005 49.28042542 60.8125 43.6875 C61.204375 42.800625 61.59625 41.91375 62 41 C62.99 41.33 63.98 41.66 65 42 C65 42.66 65 43.32 65 44 C66.65 44 68.3 44 70 44 C69.34 45.32 68.68 46.64 68 48 C67.01 48 66.02 48 65 48 C65 49.32 65 50.64 65 52 C64.0409375 52.1546875 64.0409375 52.1546875 63.0625 52.3125 C62.381875 52.539375 61.70125 52.76625 61 53 C60.67 53.99 60.34 54.98 60 56 C59.01 56.33 58.02 56.66 57 57 C56.67 57.99 56.34 58.98 56 60 C54.2578125 60.9140625 54.2578125 60.9140625 52.125 61.625 C51.42632812 61.86476562 50.72765625 62.10453125 50.0078125 62.3515625 C49.34523437 62.56554687 48.68265625 62.77953125 48 63 C47.01 63.33 46.02 63.66 45 64 C44.67 65.98 44.34 67.96 44 70 C44.66 70.33 45.32 70.66 46 71 C46.91047503 72.42385815 47.75708344 73.88918676 48.5625 75.375 C49.21412109 76.56222656 49.21412109 76.56222656 49.87890625 77.7734375 C51 80 51 80 52 83 C52.99 83.33 53.98 83.66 55 84 C55 84.66 55 85.32 55 86 C55.75665847 87.45567726 56.5717922 88.88118855 57.4140625 90.2890625 C58.18556641 91.57876953 58.18556641 91.57876953 58.97265625 92.89453125 C59.51792969 93.79558594 60.06320312 94.69664062 60.625 95.625 C61.14707031 96.50285156 61.66914063 97.38070312 62.20703125 98.28515625 C65.14094881 103.16053038 68.21109938 107.79061403 71.73461914 112.26074219 C72.99244484 113.98961548 73.91452788 115.6886958 74.8125 117.625 C77.06676766 122.46248425 80.04669492 126.82319481 83.00317383 131.25244141 C86 135.79369418 86 135.79369418 86 138 C86.66 138.33 87.32 138.66 88 139 C89.10644531 140.6003418 89.10644531 140.6003418 90.328125 142.69921875 C90.79057617 143.48441895 91.25302734 144.26961914 91.72949219 145.07861328 C92.48214355 146.37001221 92.48214355 146.37001221 93.25 147.6875 C97.62248792 155.08617486 102.10719543 162.39295174 106.75 169.625 C111.89803727 177.65713985 116.94958355 185.74244873 121.9375 193.875 C127.35434494 202.70047118 132.78046708 211.51956189 138.25 220.3125 C138.8699585 221.31458496 139.48991699 222.31666992 140.12866211 223.34912109 C142.39718972 226.98844667 144.6067995 230.5111742 147.296875 233.85546875 C149.13204891 236.16627259 149.94197051 238.260083 151 241 C152.81479117 243.87308403 154.71913189 246.6712751 156.63671875 249.4765625 C157.31154297 250.72566406 157.31154297 250.72566406 158 252 C157.67 252.99 157.34 253.98 157 255 C107.5 255.495 107.5 255.495 57 256 C57.33 257.32 57.66 258.64 58 260 C58.99 260.33 59.98 260.66 61 261 C61 261.66 61 262.32 61 263 C59.68 263 58.36 263 57 263 C57 263.99 57 264.98 57 266 C55.02 266 53.04 266 51 266 C50.67 266.66 50.34 267.32 50 268 C50 263.71 50 259.42 50 255 C48.68 255.33 47.36 255.66 46 256 C44.66453585 256.07377817 43.32574392 256.09855634 41.98834229 256.08229065 C41.2003273 256.07525116 40.41231232 256.06821167 39.60041809 256.06095886 C38.74518051 256.04801285 37.88994293 256.03506683 37.00878906 256.02172852 C36.10112289 256.01212097 35.19345673 256.00251343 34.25828552 255.99261475 C31.26065233 255.95965599 28.2631663 255.91931164 25.265625 255.87890625 C23.18626422 255.85460209 21.106898 255.83075868 19.02752686 255.80735779 C13.55631316 255.74454636 8.08519572 255.6754713 2.61407471 255.60510254 C-2.96947855 255.53439259 -8.55310001 255.46959154 -14.13671875 255.40429688 C-25.0912208 255.27532242 -36.04563027 255.13973238 -47 255 C-47.16873478 256.43725871 -47.33490737 257.87481838 -47.5 259.3125 C-47.5928125 260.11300781 -47.685625 260.91351563 -47.78125 261.73828125 C-48.04813463 264.11896555 -48.04813463 264.11896555 -48 267 C-49.0725 266.690625 -50.145 266.38125 -51.25 266.0625 C-53.82866222 265.33187904 -56.39512102 264.62517096 -59 264 C-58.39676766 260.62189888 -57.09807945 258.67744188 -55 256 C-56.17684357 256.00444122 -57.35368713 256.00888245 -58.56619263 256.01345825 C-69.66028521 256.05401288 -80.75436274 256.08398855 -91.84851265 256.10362434 C-97.55203467 256.11405866 -103.25549681 256.12821158 -108.95898438 256.15087891 C-114.46381086 256.17261963 -119.96857978 256.18457127 -125.47344589 256.18975449 C-127.57297548 256.19344802 -129.67250193 256.20066053 -131.77200699 256.21146011 C-134.71412195 256.22599122 -137.65599942 256.22797724 -140.59814453 256.22705078 C-141.46489304 256.23424133 -142.33164154 256.24143188 -143.22465515 256.24884033 C-147.88615817 256.23297094 -151.61401607 255.79231159 -156 254 C-152.92122124 247.45936862 -149.44359578 241.37673711 -145.453125 235.34765625 C-143.86812935 232.98840578 -143.86812935 232.98840578 -143 230 C-142.34 230 -141.68 230 -141 230 C-140.63068359 228.96746094 -140.63068359 228.96746094 -140.25390625 227.9140625 C-138.79302288 224.51898776 -136.91933478 221.48070174 -134.9375 218.375 C-132.07183463 213.89227657 -132.07183463 213.89227657 -130 209 C-129.34 209 -128.68 209 -128 209 C-127.77441406 208.34257812 -127.54882812 207.68515625 -127.31640625 207.0078125 C-125.57587646 203.03093435 -123.28361533 199.51861334 -120.9375 195.875 C-120.02703955 194.45759313 -119.11936661 193.03839082 -118.21484375 191.6171875 C-117.81386475 190.99440918 -117.41288574 190.37163086 -116.99975586 189.72998047 C-115.84159705 187.85959821 -115.84159705 187.85959821 -115 185 C-114.34 185 -113.68 185 -113 185 C-112.71125 184.278125 -112.4225 183.55625 -112.125 182.8125 C-110.5625 178.90625 -110.5625 178.90625 -109 175 C-108.34 175 -107.68 175 -107 175 C-105.92474806 172.34771188 -104.90543849 169.71631546 -104 167 C-103.34 167 -102.68 167 -102 167 C-101.67 165.35 -101.34 163.7 -101 162 C-100.34 162 -99.68 162 -99 162 C-98.71125 161.278125 -98.4225 160.55625 -98.125 159.8125 C-97.75375 158.884375 -97.3825 157.95625 -97 157 C-96.690625 156.13375 -96.38125 155.2675 -96.0625 154.375 C-95 152 -95 152 -93.6574707 150.70117188 C-91.49446375 148.48113469 -90.04017726 146.04724192 -88.41796875 143.40625 C-87.73283203 142.2925 -87.04769531 141.17875 -86.34179688 140.03125 C-85.80993774 139.15919922 -85.80993774 139.15919922 -85.26733398 138.26953125 C-84.20618389 136.53061741 -83.13787052 134.79628073 -82.06835938 133.0625 C-77.83117491 126.14982488 -73.7995331 119.16271287 -70 112 C-69.34 112 -68.68 112 -68 112 C-67.62875 111.01 -67.62875 111.01 -67.25 110 C-65.68182955 106.23639093 -63.85494954 102.6288576 -62 99 C-61.34 99 -60.68 99 -60 99 C-59.73316406 98.28070313 -59.46632813 97.56140625 -59.19140625 96.8203125 C-57.98951698 93.97518445 -56.56789377 91.4948465 -54.9375 88.875 C-53.27320598 86.19748052 -52.00009199 84.00027598 -51 81 C-50.34 81 -49.68 81 -49 81 C-48.731875 80.278125 -48.46375 79.55625 -48.1875 78.8125 C-47 76 -47 76 -45.3125 73.5625 C-43.60190912 70.22277496 -43.9207654 68.54605656 -45 65 C-46.77591946 62.07495618 -49.01596232 61.6249964 -52.1875 60.8125 C-53.445625 60.544375 -54.70375 60.27625 -56 60 C-56 59.34 -56 58.68 -56 58 C-57.485 57.01 -57.485 57.01 -59 56 C-59 55.34 -59 54.68 -59 54 C-60.65 53.67 -62.3 53.34 -64 53 C-64.33 52.01 -64.66 51.02 -65 50 C-66.31328657 48.64691687 -67.64499081 47.31129922 -69 46 C-69 45.67 -69 45.34 -69 45 C-67.02 45 -65.04 45 -63 45 C-62.67 44.01 -62.34 43.02 -62 42 C-60 43 -60 43 -58.625 46.125 C-55.54133832 51.79195561 -49.50021637 54.10288473 -44 57 C-42.57972079 57.8061685 -41.16222844 58.61731007 -39.75 59.4375 C-38.38875 60.2109375 -38.38875 60.2109375 -37 61 C-36.7525 60.34 -36.505 59.68 -36.25 59 C-34.68159999 55.23583997 -32.851591 51.63104208 -31 48 C-30.505 47.01 -30.505 47.01 -30 46 C-29.360625 45.236875 -28.72125 44.47375 -28.0625 43.6875 C-25.90434285 41.13687949 -25.90434285 41.13687949 -24.9375 38.25 C-24.628125 37.5075 -24.31875 36.765 -24 36 C-23.01 35.67 -22.02 35.34 -21 35 C-20.29894157 33.34750513 -19.64199649 31.67632417 -19 30 C-17.7201613 27.92228718 -16.38607376 25.89145061 -15.0234375 23.8671875 C-13.75967469 21.91642313 -13.75967469 21.91642313 -14 19 C-13.01 19 -12.02 19 -11 19 C-10.75378906 18.31421875 -10.50757813 17.6284375 -10.25390625 16.921875 C-8.7828658 13.49402996 -6.9157029 10.39955382 -4.9375 7.25 C-4.57333984 6.66089844 -4.20917969 6.07179687 -3.83398438 5.46484375 C-1.15223689 1.15223689 -1.15223689 1.15223689 0 0 Z M1 8 C-0.22983412 9.57194624 -1.40904507 11.18368182 -2.5625 12.8125 C-3.52349609 14.15248047 -3.52349609 14.15248047 -4.50390625 15.51953125 C-6.25823874 17.94536271 -6.25823874 17.94536271 -6 21 C-6.66 21 -7.32 21 -8 21 C-9.30997916 22.72690918 -9.30997916 22.72690918 -10.57421875 24.98828125 C-11.0734082 25.83447021 -11.57259766 26.68065918 -12.08691406 27.55249023 C-12.61510742 28.46329346 -13.14330078 29.37409668 -13.6875 30.3125 C-14.77887618 32.16469442 -15.87131593 34.01626258 -16.96484375 35.8671875 C-17.49062012 36.76018555 -18.01639648 37.65318359 -18.55810547 38.57324219 C-20.23565551 41.39661629 -21.97327964 44.17554492 -23.75 46.9375 C-24.26691406 47.76121094 -24.78382813 48.58492187 -25.31640625 49.43359375 C-26.59603953 51.38421802 -27.95162872 53.28525481 -29.33984375 55.16015625 C-33.65054384 60.85648854 -33.65054384 60.85648854 -34.7890625 67.63671875 C-33.84081247 70.23663013 -33.84081247 70.23663013 -32.50390625 72.8125 C-30.53693427 76.9814588 -29.4265119 81.24188836 -28.25 85.6875 C-27.81800664 87.2748208 -27.38573852 88.86206686 -26.953125 90.44921875 C-26.63859375 91.62097656 -26.3240625 92.79273438 -26 94 C-23.78682801 91.78682801 -23.69080739 90.93593142 -23 88 C-22.649375 87.319375 -22.29875 86.63875 -21.9375 85.9375 C-20.78221954 83.90865319 -20.78221954 83.90865319 -21 81 C-21.66 81 -22.32 81 -23 81 C-23.4640625 79.824375 -23.4640625 79.824375 -23.9375 78.625 C-24.92875038 76.07669872 -24.92875038 76.07669872 -26 74 C-26.37381854 68.39272183 -26.18490827 64.83227462 -23 60 C-18.80900465 55.42800507 -13.88380876 54.86829022 -8 54 C-8 53.01 -8 52.02 -8 51 C-7.01 50.505 -7.01 50.505 -6 50 C-6.66 49.01 -7.32 48.02 -8 47 C-7.01 46.505 -7.01 46.505 -6 46 C-6.99 43.69 -7.98 41.38 -9 39 C-4.125 43.75 -4.125 43.75 -3 46 C-2.34 46 -1.68 46 -1 46 C-0.67 46.99 -0.34 47.98 0 49 C3.79379058 47.50958227 5.68343758 45.30937488 8 42 C8 41.34 8 40.68 8 40 C8.99 40 9.98 40 11 40 C10.01 42.31 9.02 44.62 8 47 C8.66 47 9.32 47 10 47 C9.34 48.32 8.68 49.64 8 51 C8.99 51 9.98 51 11 51 C10.67 51.99 10.34 52.98 10 54 C11.19625 54.0825 12.3925 54.165 13.625 54.25 C17.90985187 54.75901609 20.52200739 56.43291021 24 59 C24.66 59 25.32 59 26 59 C26 59.66 26 60.32 26 61 C26.66 61 27.32 61 28 61 C28.58495621 69.64435286 28.47152878 74.26581073 23 81 C22.85231087 83.51749828 22.85231087 83.51749828 24 86 C24.24878906 86.68835938 24.49757812 87.37671875 24.75390625 88.0859375 C25.47371596 90.06802221 26.23408821 92.03526975 27 94 C29.09637701 90.85543449 29.36556445 88.83905324 29.65625 85.1328125 C30.07172711 82.5549659 31.01576217 80.41780162 32 78 C32.62908806 75.84617307 33.21058483 73.67801596 33.75 71.5 C34.03359375 70.3965625 34.3171875 69.293125 34.609375 68.15625 C36.00363508 56.89062852 21.30430534 39.8604623 15.66113281 30.64501953 C15.07299805 29.68450684 14.48486328 28.72399414 13.87890625 27.734375 C13.3485376 26.87038086 12.81816895 26.00638672 12.27172852 25.11621094 C11 23 11 23 10 21 C9.34 21 8.68 21 8 21 C7.938125 20.34 7.87625 19.68 7.8125 19 C6.68793748 14.84776917 4.53913152 11.45699326 2 8 C1.67 8 1.34 8 1 8 Z M3 61 C3.54723683 64.37462715 4.0549 66.08235 6 69 C6.99 68.67 7.98 68.34 9 68 C8.34 67.67 7.68 67.34 7 67 C7.33 66.01 7.66 65.02 8 64 C6.62514468 62.45833358 6.62514468 62.45833358 5 61 C4.34 61 3.68 61 3 61 Z M-4.4375 62.125 C-7.59767277 65.91720732 -8.28377486 70.17582741 -8 75 C-5.01380463 72.44040397 -3.51448438 69.6059152 -2 66 C-1.74715633 63.24853726 -1.74715633 63.24853726 -2 61 C-3.17298004 60.89728196 -3.17298004 60.89728196 -4.4375 62.125 Z M8 69 C7.67 69.99 7.34 70.98 7 72 C7.99 72.99 8.98 73.98 10 75 C10 73.02 10 71.04 10 69 C9.34 69 8.68 69 8 69 Z M-40 74 C-40.78101298 75.13353097 -41.51201819 76.30154243 -42.22265625 77.48046875 C-42.67495605 78.22635254 -43.12725586 78.97223633 -43.59326172 79.74072266 C-44.32053467 80.95187744 -44.32053467 80.95187744 -45.0625 82.1875 C-46.06623804 83.84515395 -47.07014544 85.50270536 -48.07421875 87.16015625 C-48.57099121 87.98273926 -49.06776367 88.80532227 -49.57958984 89.65283203 C-51.49610193 92.81978755 -53.43349414 95.9733012 -55.375 99.125 C-56.00148438 100.1459375 -56.62796875 101.166875 -57.2734375 102.21875 C-58.36626012 103.97913394 -59.4738901 105.73048424 -60.6015625 107.46875 C-63.28465495 111.40267666 -63.28465495 111.40267666 -64 116 C-64.66 116 -65.32 116 -66 116 C-67.51834986 118.23497921 -67.51834986 118.23497921 -69.0625 121.125 C-72.20502326 126.70065835 -75.57410866 132.06079319 -79.15454102 137.36572266 C-81.49579168 140.86998532 -81.49579168 140.86998532 -82 145 C-82.66 145 -83.32 145 -84 145 C-85.22780805 146.59520757 -85.22780805 146.59520757 -86.3984375 148.70703125 C-86.87200684 149.51221191 -87.34557617 150.31739258 -87.83349609 151.14697266 C-88.34219238 152.02659668 -88.85088867 152.9062207 -89.375 153.8125 C-90.4563848 155.65088715 -91.5397714 157.48809803 -92.625 159.32421875 C-93.181875 160.26700684 -93.73875 161.20979492 -94.3125 162.18115234 C-97.3819546 167.30845599 -100.59775398 172.34213547 -103.81396484 177.37817383 C-106.75843544 181.99865643 -109.60726533 186.66590778 -112.41503906 191.37060547 C-115.27724747 196.11890869 -118.23875049 200.8051447 -121.1875 205.5 C-126.69669163 214.29207073 -132.1549796 223.11214694 -137.546875 231.9765625 C-139.17052874 234.64545937 -140.80565301 237.30667707 -142.453125 239.9609375 C-142.83218994 240.57235596 -143.21125488 241.18377441 -143.60180664 241.8137207 C-144.61183196 243.4406178 -145.62418169 245.06607121 -146.63671875 246.69140625 C-148.08474731 248.69666678 -148.08474731 248.69666678 -148 250 C-135.52664045 250.39469191 -123.05477519 250.69632971 -110.57643318 250.88080692 C-104.78112734 250.96937515 -98.99010512 251.089359 -93.19726562 251.2824707 C-87.6012294 251.46784411 -82.00929721 251.56894887 -76.41042709 251.61291313 C-74.28006197 251.64421687 -72.14991089 251.70536292 -70.02130508 251.79741096 C-58.89074261 252.64090259 -58.89074261 252.64090259 -49.11788177 248.34696579 C-44.59779705 242.75131665 -42.05164881 236.30659845 -39.89138794 229.51429749 C-39 227 -39 227 -37 226 C-36.31068656 223.65092125 -36.31068656 223.65092125 -35.875 220.9375 C-35.70742187 220.01839844 -35.53984375 219.09929687 -35.3671875 218.15234375 C-35.18542969 217.08693359 -35.18542969 217.08693359 -35 216 C-40.20356054 220.29859349 -44.95516957 224.89892187 -49.66796875 229.73046875 C-52 232 -52 232 -54.30078125 233.67578125 C-54.86152344 234.11277344 -55.42226562 234.54976562 -56 235 C-56 235.66 -56 236.32 -56 237 C-56.515625 237.0825 -57.03125 237.165 -57.5625 237.25 C-60.26994449 238.08305984 -62.50493624 239.385178 -64.9375 240.81640625 C-67.30228937 242.17347288 -69.69944229 243.442236 -72.125 244.6875 C-72.93195313 245.10386719 -73.73890625 245.52023437 -74.5703125 245.94921875 C-80.83587274 248.65892246 -87.28120053 248.81563984 -93.75 246.875 C-97.74031329 244.57289618 -99.14078867 243.23900184 -101 239 C-103.41065232 220.262657 -92.37421387 204.01708039 -83.515625 188.4453125 C-80.46445784 183.07217229 -77.47615533 177.66497387 -74.5 172.25 C-73.97116211 171.29657715 -73.44232422 170.3431543 -72.89746094 169.36083984 C-72.15931152 168.0143335 -72.15931152 168.0143335 -71.40625 166.640625 C-70.96603516 165.84172852 -70.52582031 165.04283203 -70.07226562 164.21972656 C-68.93226398 162.07815525 -68.93226398 162.07815525 -68.53710938 159.89746094 C-67.86974287 157.53983708 -66.76885909 156.65738916 -65 155 C-63.55597504 152.516391 -62.16971727 150.02985299 -60.8125 147.5 C-57.47466302 141.39591597 -53.91132374 135.82563752 -49.62890625 130.33203125 C-47.97242409 127.96052083 -46.96109215 125.71906975 -46 123 C-45.34 123 -44.68 123 -44 123 C-42.6393991 121.51363242 -42.6393991 121.51363242 -41.375 119.625 C-40.92898437 118.99851563 -40.48296875 118.37203125 -40.0234375 117.7265625 C-38.83003031 116.04777357 -38.83003031 116.04777357 -39 114 C-37.68 113.34 -36.36 112.68 -35 112 C-36.485 111.505 -36.485 111.505 -38 111 C-38 110.34 -38 109.68 -38 109 C-37.34 108.67 -36.68 108.34 -36 108 C-36.99 106.02 -36.99 106.02 -38 104 C-37.34 104 -36.68 104 -36 104 C-36.495 103.2265625 -36.495 103.2265625 -37 102.4375 C-38.32953894 99.19674883 -38.1242088 96.47784643 -38 93 C-38 89.13209997 -38.27370354 87.98680587 -40 84.75 C-40.556875 83.69039062 -40.556875 83.69039062 -41.125 82.609375 C-41.41375 82.07828125 -41.7025 81.5471875 -42 81 C-41.01 81.33 -40.02 81.66 -39 82 C-39 81.34 -39 80.68 -39 80 C-38.34 79.67 -37.68 79.34 -37 79 C-37.99 76.525 -37.99 76.525 -39 74 C-39.33 74 -39.66 74 -40 74 Z M40 74 C39.67 75.98 39.34 77.96 39 80 C39.66 80 40.32 80 41 80 C41 80.66 41 81.32 41 82 C41.66 82 42.32 82 43 82 C41.35 85.3 39.7 88.6 38 92 C38.99 92.33 39.98 92.66 41 93 C40.52269162 94.4589426 40.04308958 95.91713496 39.5625 97.375 C39.29566406 98.18710938 39.02882812 98.99921875 38.75390625 99.8359375 C38 102 38 102 37 104 C37.99 104 38.98 104 40 104 C39.649375 104.70125 39.29875 105.4025 38.9375 106.125 C37.76968265 109.70630653 37.99188621 111.36640725 39 115 C40.5950645 117.4315314 42.48080525 119.54184871 44.4375 121.6875 C49.89845095 127.84767642 49.89845095 127.84767642 52 131 C52.66 131 53.32 131 54 131 C54.10924805 131.56460938 54.21849609 132.12921875 54.33105469 132.7109375 C55.10080962 135.34496022 56.25189675 137.29696827 57.703125 139.625 C60.81810038 144.6965809 63.80294353 149.82938057 66.75 155 C67.2665918 155.90427734 67.78318359 156.80855469 68.31542969 157.74023438 C72.09952276 164.37923868 75.80814508 171.05750809 79.48901367 177.75415039 C81.88068501 182.07672121 84.40024327 186.27345742 87.0625 190.4375 C95.46096844 203.94659832 106.37012629 222.47464206 103.60546875 238.98046875 C102.21856793 243.60645405 99.86426687 245.51800502 95.75 247.8125 C94.8425 248.204375 93.935 248.59625 93 249 C93 249.33 93 249.66 93 250 C111.81 250 130.62 250 150 250 C148.525633 246.31408249 147.43172588 243.93846745 145.25 240.8125 C141.10208912 234.72556572 137.39377038 228.39624231 133.69140625 222.03125 C132.87766759 220.64579608 132.06386559 219.26037936 131.25 217.875 C130.66641724 216.86058838 130.66641724 216.86058838 130.07104492 215.82568359 C129.10263363 214.18325466 128.05763062 212.58644593 127 211 C126.34 211 125.68 211 125 211 C124.88245361 210.42451416 124.76490723 209.84902832 124.64379883 209.25610352 C123.95376973 206.83799246 122.99944516 205.05131179 121.69921875 202.90234375 C121.22315186 202.11118164 120.74708496 201.32001953 120.2565918 200.50488281 C119.7387915 199.65764648 119.22099121 198.81041016 118.6875 197.9375 C118.14843018 197.04772461 117.60936035 196.15794922 117.05395508 195.24121094 C112.52496202 187.79408959 107.88465946 180.41934058 103.2109375 173.0625 C99.55477237 167.30627768 95.93039465 161.53033517 92.3125 155.75 C91.35827148 154.22777832 91.35827148 154.22777832 90.38476562 152.67480469 C87.58170687 148.19020236 84.80025909 143.6982235 82.1171875 139.140625 C81.69912842 138.43067383 81.28106934 137.72072266 80.8503418 136.98925781 C80.09731364 135.70106268 79.35092707 134.40895255 78.61254883 133.11230469 C77.79497326 131.7091102 76.90531714 130.34825274 76 129 C75.34 129 74.68 129 74 129 C73.87415527 128.40719238 73.74831055 127.81438477 73.61865234 127.20361328 C72.64219202 123.72550321 70.56716915 120.88374616 68.625 117.875 C67.71002531 116.43547523 66.79599735 114.99534835 65.8828125 113.5546875 C65.4074707 112.80670898 64.93212891 112.05873047 64.44238281 111.28808594 C62.0864653 107.55083832 59.79487863 103.77491794 57.5 100 C55.66826118 96.99902459 53.83414571 93.99950479 52 91 C51.52933105 90.22897949 51.05866211 89.45795898 50.57373047 88.66357422 C49.20029429 86.41823489 47.81990734 84.17732421 46.4375 81.9375 C46.01984375 81.25236328 45.6021875 80.56722656 45.171875 79.86132812 C43.15429212 76.35650385 43.15429212 76.35650385 40 74 Z M-12 85 C-11.34 85.66 -10.68 86.32 -10 87 C-9.67 86.34 -9.34 85.68 -9 85 C-9.99 85 -10.98 85 -12 85 Z M-13 90 C-13.66 90.66 -14.32 91.32 -15 92 C-13.68 92 -12.36 92 -11 92 C-11 91.34 -11 90.68 -11 90 C-11.66 90 -12.32 90 -13 90 Z M13 90 C13 90.66 13 91.32 13 92 C14.65 92 16.3 92 18 92 C17.34 91.34 16.68 90.68 16 90 C15.01 90 14.02 90 13 90 Z M-1 93 C3 94 3 94 3 94 Z M0 96 C-0.66 96.66 -1.32 97.32 -2 98 C-0.68 98.33 0.64 98.66 2 99 C2.33 98.34 2.66 97.68 3 97 C2.01 96.67 1.02 96.34 0 96 Z M0 101 C-0.66 102.65 -1.32 104.3 -2 106 C-1.01 106 -0.02 106 1 106 C0.69078116 107.45903258 0.37751201 108.91720722 0.0625 110.375 C-0.11152344 111.18710938 -0.28554687 111.99921875 -0.46484375 112.8359375 C-1 115 -1 115 -2 117 C-1.01 117 -0.02 117 1 117 C2.70532323 115.05990478 2.70532323 115.05990478 4 113 C3.34 112.34 2.68 111.68 2 111 C2.99 110.34 3.98 109.68 5 109 C4.01 109 3.02 109 2 109 C2 108.01 2 107.02 2 106 C2.66 105.67 3.32 105.34 4 105 C3.01 104.01 2.02 103.02 1 102 C1.66 101.67 2.32 101.34 3 101 C2.01 101 1.02 101 0 101 Z M-18 109 C-18 109.66 -18 110.32 -18 111 C-16.35 111 -14.7 111 -13 111 C-13.33 110.34 -13.66 109.68 -14 109 C-15.32 109 -16.64 109 -18 109 Z M15 109 C15 109.66 15 110.32 15 111 C15.66 111 16.32 111 17 111 C17 110.34 17 109.68 17 109 C16.34 109 15.68 109 15 109 Z M-36 119 C-37.36940568 120.57017193 -38.72012895 122.15665391 -40.0625 123.75 C-40.81660156 124.63171875 -41.57070312 125.5134375 -42.34765625 126.421875 C-42.89292969 127.27265625 -43.43820313 128.1234375 -44 129 C-43.67 130.32 -43.34 131.64 -43 133 C-40.36 129.04 -37.72 125.08 -35 121 C-35.33 120.34 -35.66 119.68 -36 119 Z M-3 120 C-2.01 120.495 -2.01 120.495 -1 121 C-1.33 122.32 -1.66 123.64 -2 125 C-1.34 125.33 -0.68 125.66 0 126 C0 127.32 0 128.64 0 130 C-0.66 130.66 -1.32 131.32 -2 132 C-1.01 132.33 -0.02 132.66 1 133 C2.19351312 129.65670531 2.19351312 129.65670531 3 126 C2.34 125.01 1.68 124.02 1 123 C1.99 122.67 2.98 122.34 4 122 C3.67 121.34 3.34 120.68 3 120 C1.02 120 -0.96 120 -3 120 Z M-15 121 C-15.33 121.66 -15.66 122.32 -16 123 C-15.34 123 -14.68 123 -14 123 C-14.33 122.34 -14.66 121.68 -15 121 Z M16 121 C16 121.66 16 122.32 16 123 C16.66 123 17.32 123 18 123 C18 122.34 18 121.68 18 121 C17.34 121 16.68 121 16 121 Z M38 121 C39.45044271 125.10958767 41.51110752 128.43258745 44 132 C44.77009453 130.19541867 44.77009453 130.19541867 45 128 C43.85849443 125.99956588 43.85849443 125.99956588 42.125 124.25 C41.57070312 123.63640625 41.01640625 123.0228125 40.4453125 122.390625 C39.21417916 120.88444296 39.21417916 120.88444296 38 121 Z M-14 125 C-14.33 125.66 -14.66 126.32 -15 127 C-14.01 127.33 -13.02 127.66 -12 128 C-12 127.01 -12 126.02 -12 125 C-12.66 125 -13.32 125 -14 125 Z M13 125 C13 126.98 13 128.96 13 131 C13.99 131 14.98 131 16 131 C15.67 129.68 15.34 128.36 15 127 C15.66 126.67 16.32 126.34 17 126 C15.68 125.67 14.36 125.34 13 125 Z M-14 130 C-12.515 130.99 -12.515 130.99 -11 132 C-11 131.34 -11 130.68 -11 130 C-11.99 130 -12.98 130 -14 130 Z M33 130 C34 132 34 132 34 132 Z M34 132 C35 134 35 134 35 134 Z M47 132 C46.67 132.99 46.34 133.98 46 135 C47.13571946 137.21379076 47.13571946 137.21379076 48.8125 139.4375 C50.40829593 141.67767908 51.88246142 143.75329815 53.06640625 146.23828125 C53.86250752 148.22126361 53.86250752 148.22126361 56.125 148.75 C56.74375 148.8325 57.3625 148.915 58 149 C56.5137853 144.80591769 54.41721984 141.37332677 51.9375 137.6875 C51.22464844 136.61886719 50.51179687 135.55023438 49.77734375 134.44921875 C49.19082031 133.64097656 48.60429687 132.83273437 48 132 C47.67 132 47.34 132 47 132 Z M-47 133 C-47 133.99 -47 134.98 -47 136 C-47.99 136.33 -48.98 136.66 -50 137 C-51.3002168 138.48146199 -51.3002168 138.48146199 -52.3125 140.3125 C-52.67988281 140.90675781 -53.04726562 141.50101563 -53.42578125 142.11328125 C-54.23896823 144.07809916 -54.23896823 144.07809916 -53.10546875 146.23046875 C-52.74066406 146.81441406 -52.37585938 147.39835938 -52 148 C-50.80017556 146.07010782 -49.61547182 144.13080772 -48.4375 142.1875 C-47.77621094 141.10855469 -47.11492187 140.02960938 -46.43359375 138.91796875 C-44.59624773 136.04100655 -44.59624773 136.04100655 -46 133 C-46.33 133 -46.66 133 -47 133 Z M1 134 C0.01 135.485 0.01 135.485 -1 137 C0.32 137 1.64 137 3 137 C3 136.01 3 135.02 3 134 C2.34 134 1.68 134 1 134 Z M-33 135 C-33.66 136.98 -34.32 138.96 -35 141 C-34.01 140.01 -33.02 139.02 -32 138 C-32.33 137.01 -32.66 136.02 -33 135 Z M35 135 C35.66 136.32 36.32 137.64 37 139 C37 137.68 37 136.36 37 135 C36.34 135 35.68 135 35 135 Z M40 139 C40 139.99 40 140.98 40 142 C40.66 141.67 41.32 141.34 42 141 C41.34 140.34 40.68 139.68 40 139 Z M-9 142 C-8 144 -8 144 -8 144 Z M-24 144 C-23.39174965 148.34464536 -22.73832608 152.67551867 -22 157 C-22.66 155.68 -23.32 154.36 -24 153 C-24.99 153.33 -25.98 153.66 -27 154 C-27 158.95 -27 163.9 -27 169 C-24.62216162 166.62216162 -24.40990792 165.27926335 -24 162 C-24.33 161.34 -24.66 160.68 -25 160 C-23.35 159.67 -21.7 159.34 -20 159 C-20 160.65 -20 162.3 -20 164 C-19.01 164.33 -18.02 164.66 -17 165 C-15.55028856 157.57022889 -15.15051259 151.63704726 -19 145 C-21.57732914 143.94832473 -21.57732914 143.94832473 -24 144 Z M24 143 C21.27665095 144.63400943 20.10414577 145.77608658 18.75 148.6875 C17.49748408 154.21944532 17.61627842 159.46511369 19 165 C19.66 165 20.32 165 21 165 C21.33 163.02 21.66 161.04 22 159 C23.65 159 25.3 159 27 159 C26.814375 159.5775 26.62875 160.155 26.4375 160.75 C25.95000142 163.25713553 26.12657884 164.61794229 27 167 C27.66 167.66 28.32 168.32 29 169 C29.02721176 167.10424749 29.04649136 165.20838021 29.0625 163.3125 C29.07410156 162.25675781 29.08570313 161.20101562 29.09765625 160.11328125 C29.00865425 157.27589738 28.64939838 154.7561081 28 152 C26.35 153.32 24.7 154.64 23 156 C23.99 152.37 24.98 148.74 26 145 C25.34 144.34 24.68 143.68 24 143 Z M32 146 C33 148 33 148 33 148 Z M-8 147 C-8.33 147.66 -8.66 148.32 -9 149 C-8.34 149 -7.68 149 -7 149 C-7.33 148.34 -7.66 147.68 -8 147 Z M9 147 C10 149 10 149 10 149 Z M38 148 C38.66 149.32 39.32 150.64 40 152 C39.67 150.68 39.34 149.36 39 148 C38.67 148 38.34 148 38 148 Z M-39 150 C-39.46148437 150.95519531 -39.92296875 151.91039062 -40.3984375 152.89453125 C-43.7584829 159.62248692 -46.97196946 165.33912727 -52.3125 170.6875 C-56.72388193 175.23924408 -58.0073094 178.4706949 -59.08984375 184.62109375 C-60.48034635 189.78326005 -63.14430197 194.19703644 -65.86547852 198.77392578 C-68.81620195 203.92894458 -69.66195314 208.0608663 -70 214 C-68.515 213.505 -68.515 213.505 -67 213 C-65.27467737 212.77991948 -63.54465967 212.59496906 -61.8125 212.4375 C-60.91144531 212.35371094 -60.01039063 212.26992188 -59.08203125 212.18359375 C-58.39496094 212.12300781 -57.70789063 212.06242187 -57 212 C-56.76216797 210.65421875 -56.76216797 210.65421875 -56.51953125 209.28125 C-52.6609274 188.64518078 -44.85541086 169.38782255 -37 150 C-37.66 150 -38.32 150 -39 150 Z M33 150 C34 152 34 152 34 152 Z M-58 151 C-58.680625 152.11375 -59.36125 153.2275 -60.0625 154.375 C-60.44535156 155.00148438 -60.82820313 155.62796875 -61.22265625 156.2734375 C-61.47917969 156.84320313 -61.73570312 157.41296875 -62 158 C-61.67 158.66 -61.34 159.32 -61 160 C-59.35 158.02 -57.7 156.04 -56 154 C-56.66 153.01 -57.32 152.02 -58 151 Z M59 151 C60 153 60 153 60 153 Z M40 152 C40.57452746 155.93075644 40.57452746 155.93075644 43 159 C43.33 158.34 43.66 157.68 44 157 C42.68134288 154.35774595 42.68134288 154.35774595 41 152 C40.67 152 40.34 152 40 152 Z M45 153 C45.66 154.65 46.32 156.3 47 158 C47.66 157.34 48.32 156.68 49 156 C48.34 155.01 47.68 154.02 47 153 C46.34 153 45.68 153 45 153 Z M57 153 C58 155 58 155 58 155 Z M60 153 C59.67 154.32 59.34 155.64 59 157 C61.475 158.485 61.475 158.485 64 160 C63.39816251 157.97954558 62.72693904 155.97888961 62 154 C61.34 153.67 60.68 153.34 60 153 Z M-46 154 C-45 156 -45 156 -45 156 Z M-47 156 C-49.64 159.63 -52.28 163.26 -55 167 C-54.67 167.66 -54.34 168.32 -54 169 C-49.5335034 163.82819267 -49.5335034 163.82819267 -46 158 C-46.33 157.34 -46.66 156.68 -47 156 Z M49 157 C49.29123499 162.97031739 52.02814384 165.894534 56 170 C56.66 169.67 57.32 169.34 58 169 C56.69161864 166.997193 55.37857806 164.99773901 54.0625 163 C53.68931641 162.42765625 53.31613281 161.8553125 52.93164062 161.265625 C51.98055411 159.82614271 50.99305724 158.41085511 50 157 C49.67 157 49.34 157 49 157 Z M5 159 C5 159.66 5 160.32 5 161 C4.34 161 3.68 161 3 161 C3.33 161.66 3.66 162.32 4 163 C6.89186786 164.33304698 6.89186786 164.33304698 9.1875 163.0625 C9.785625 162.711875 10.38375 162.36125 11 162 C10.67 161.34 10.34 160.68 10 160 C9.01 160.33 8.02 160.66 7 161 C6.34 160.34 5.68 159.68 5 159 Z M43 159 C43.42170244 162.26819388 44.3790399 164.97445721 45.75 167.9375 C48.59749973 174.13133153 50.78039163 180.56011586 53 187 C53.34675781 187.98484375 53.69351563 188.9696875 54.05078125 189.984375 C55.09997572 193.31761833 55.85150968 196.64155706 56.5625 200.0625 C56.81128906 201.24972656 57.06007813 202.43695313 57.31640625 203.66015625 C57.88511035 206.438682 58.44783621 209.21814623 59 212 C59.60328125 212.04898438 60.2065625 212.09796875 60.828125 212.1484375 C61.62734375 212.22320312 62.4265625 212.29796875 63.25 212.375 C64.03890625 212.44460938 64.8278125 212.51421875 65.640625 212.5859375 C68.085877 213.01507113 69.84836903 213.78600638 72 215 C72.66 214.34 73.32 213.68 74 213 C72.73832132 207.69873608 71.33569245 203.13943952 68.125 198.6875 C63.65994928 192.44531467 61.19819215 185.18589206 59.09765625 177.84765625 C57.89127366 174.71793061 56.66951382 173.33650754 54.1875 171.125 C50.71197323 167.85762638 48.30104944 164.63827172 46.0078125 160.46875 C45.50894531 159.74171875 45.50894531 159.74171875 45 159 C44.34 159 43.68 159 43 159 Z M-8 162 C-6.23470405 163.21690533 -6.23470405 163.21690533 -4 164 C-1.76529595 163.21690533 -1.76529595 163.21690533 0 162 C-0.33 161.34 -0.66 160.68 -1 160 C-3.6465335 160 -5.5808163 160.98139634 -8 162 Z M-40 163 C-39 166 -39 166 -39 166 Z M33 165 C31.81990204 167.36019593 31.70232315 169.16095717 31.46484375 171.7890625 C31.33432617 173.20058594 31.33432617 173.20058594 31.20117188 174.640625 C31.0706543 176.11789062 31.0706543 176.11789062 30.9375 177.625 C30.84662109 178.61757813 30.75574219 179.61015625 30.66210938 180.6328125 C30.43781564 183.08823868 30.21726893 185.54394389 30 188 C29.34 188 28.68 188 28 188 C26.4888005 182.96266834 27.35400227 178.11828973 28 173 C25.36 172.01 22.72 171.02 20 170 C20.11512153 171.72985242 20.24255677 173.45888751 20.375 175.1875 C20.44460937 176.15042969 20.51421875 177.11335937 20.5859375 178.10546875 C21.00215853 181.01508938 21.79874096 183.32890774 23 186 C23.66 186 24.32 186 25 186 C25.08636719 186.80824219 25.17273438 187.61648438 25.26171875 188.44921875 C25.95089316 195.49112846 25.95089316 195.49112846 29.625 201.25 C30.40875 201.8275 31.1925 202.405 32 203 C39.47026148 184.88471964 39.47026148 184.88471964 37 166 C36.01 166.495 36.01 166.495 35 167 C34.34 166.34 33.68 165.68 33 165 Z M-41 166 C-42.12898402 168.85264678 -43.25327567 171.70699937 -44.375 174.5625 C-44.69210938 175.36236328 -45.00921875 176.16222656 -45.3359375 176.98632812 C-47.14758196 181.60979575 -48.71738486 186.19572172 -50 191 C-50.35320312 192.25296875 -50.70640625 193.5059375 -51.0703125 194.796875 C-54.1432379 206.12243522 -55.01765543 215.49518868 -52 227 C-47.81951726 223.4941773 -43.76506395 219.95814415 -40 216 C-39.43539062 215.49984375 -38.87078125 214.9996875 -38.2890625 214.484375 C-36.45881595 212.71210006 -35.15422874 211.27785294 -34 209 C-34.04320356 205.45190741 -34.88117378 202.35062092 -36 199 C-36.33 198.01 -36.66 197.02 -37 196 C-37.66 196 -38.32 196 -39 196 C-39.33 200.62 -39.66 205.24 -40 210 C-41.97030149 203.80762388 -43.29642042 197.4647747 -44 191 C-43.67 190.67 -43.34 190.34 -43 190 C-43 188.845 -43 187.69 -43 186.5 C-43 183 -43 183 -42 182 C-42.020625 181.113125 -42.04125 180.22625 -42.0625 179.3125 C-42 176 -42 176 -40.9375 172.875 C-39.94738895 169.83865946 -40.10114468 168.92913691 -41 166 Z M-32 164 C-32 164.66 -32 165.32 -32 166 C-32.99 166 -33.98 166 -35 166 C-37.83152511 173.2557831 -37.26564735 178.66996446 -35 186 C-34.855625 186.94875 -34.71125 187.8975 -34.5625 188.875 C-33.68837746 193.73123635 -32.21171145 198.5765771 -30 203 C-29.34 203 -28.68 203 -28 203 C-24.37458967 198.71542415 -23.65929938 195.61134355 -23.2734375 190.08984375 C-22.90105044 187.24374264 -21.51038541 185.41661665 -20 183 C-18.83568696 179.010098 -18 175.16148236 -18 171 C-21.71599191 170.79913557 -22.77208445 170.8480563 -26 173 C-25.67 176.3 -25.34 179.6 -25 183 C-25.33 183 -25.66 183 -26 183 C-26.33 184.65 -26.66 186.3 -27 188 C-27.11593506 187.37955811 -27.23187012 186.75911621 -27.35131836 186.11987305 C-27.87787607 183.30867062 -28.40765086 180.49808384 -28.9375 177.6875 C-29.21110352 176.22280273 -29.21110352 176.22280273 -29.49023438 174.72851562 C-29.66748047 173.79072266 -29.84472656 172.85292969 -30.02734375 171.88671875 C-30.18968506 171.02264404 -30.35202637 170.15856934 -30.51928711 169.26831055 C-30.98706214 166.85102176 -30.98706214 166.85102176 -32 164 Z M42 167 C42.15202881 167.94129761 42.15202881 167.94129761 42.30712891 168.90161133 C44.48694277 182.83186536 45.93043893 196.07653885 43 210 C42.34 210.66 41.68 211.32 41 212 C41 206.39 41 200.78 41 195 C38.28271334 197.71728666 37.93926125 200.30557243 37 204 C36.60167969 205.20269531 36.60167969 205.20269531 36.1953125 206.4296875 C35.72606674 209.11975233 35.72606674 209.11975233 37.58984375 211.39453125 C38.75193359 212.59142578 38.75193359 212.59142578 39.9375 213.8125 C40.75992188 214.67230469 41.58234375 215.53210938 42.4296875 216.41796875 C43.27789062 217.27003906 44.12609375 218.12210938 45 219 C45.78632813 219.80050781 46.57265625 220.60101563 47.3828125 221.42578125 C49.24029089 223.29990371 51.11120447 225.15752371 53 227 C53.99 226.505 53.99 226.505 55 226 C54.979375 225.030625 54.95875 224.06125 54.9375 223.0625 C55 220 55 220 56 219 C57.73677605 203.25512856 51.15765785 187.91844476 45.8046875 173.4453125 C45.50546387 172.63594238 45.20624023 171.82657227 44.89794922 170.99267578 C44.06391036 168.82779806 44.06391036 168.82779806 42 167 Z M-66.48046875 169.29296875 C-71.03864198 174.35181089 -74.17919142 179.68662427 -77.2890625 185.73046875 C-79.32904781 189.62879684 -81.59780198 193.34792953 -83.93359375 197.07421875 C-85.16147905 198.92472028 -85.16147905 198.92472028 -85 201 C-84.34 201 -83.68 201 -83 201 C-81.79142652 199.58466404 -81.79142652 199.58466404 -80.64453125 197.703125 C-80.19005615 196.99696045 -79.73558105 196.2907959 -79.26733398 195.56323242 C-78.54719116 194.41818237 -78.54719116 194.41818237 -77.8125 193.25 C-77.32144775 192.47954346 -76.83039551 191.70908691 -76.32446289 190.9152832 C-71.59813023 183.45718143 -66.87072054 175.94516322 -63 168 C-65.07653487 167.78073305 -65.07653487 167.78073305 -66.48046875 169.29296875 Z M-60 169 C-59 171 -59 171 -59 171 Z M66 169 C68.75892097 173.94571548 71.70532371 178.68380603 74.875 183.375 C75.31118652 184.02476807 75.74737305 184.67453613 76.19677734 185.34399414 C77.0632423 186.63470934 77.93056651 187.9248482 78.79882812 189.21435547 C80.41508667 191.61706177 82.02050025 194.02693014 83.625 196.4375 C84.09164062 197.13746094 84.55828125 197.83742188 85.0390625 198.55859375 C85.51472656 199.27208984 85.51472656 199.27208984 86 200 C86.33 199.34 86.66 198.68 87 198 C86.06548876 195.93478794 86.06548876 195.93478794 84.61328125 193.67578125 C84.08669922 192.81146484 83.56011719 191.94714844 83.01757812 191.05664062 C82.45490234 190.15107422 81.89222656 189.24550781 81.3125 188.3125 C80.22465193 186.53813333 79.13740114 184.76340032 78.05078125 182.98828125 C77.52597168 182.13903076 77.00116211 181.28978027 76.46044922 180.41479492 C75.17235702 178.2849855 73.96495586 176.13196888 72.77734375 173.9453125 C70.80340046 170.67420648 69.64886956 169.91221739 66 169 Z M62 170 C61.71701803 172.99751269 61.69118624 174.5410924 63.3984375 177.078125 C64.05070313 177.79484375 64.70296875 178.5115625 65.375 179.25 C69.71841225 184.38662406 73.01391342 189.84333563 76.32177734 195.67089844 C78.85597834 200.12166067 81.56675116 204.38490901 84.43408203 208.62817383 C87.22330582 212.85288682 89.7892346 217.21139106 92.375 221.5625 C93.19291016 222.93245117 93.19291016 222.93245117 94.02734375 224.33007812 C95.35361891 226.55217072 96.67779892 228.77548169 98 231 C99.47292189 228.05415621 98.71262748 225.67753839 97.95703125 222.58203125 C96.50990522 218.6777443 94.14557337 215.76200356 91.61328125 212.484375 C88.16276104 207.97880507 85.07232183 203.22767035 81.9375 198.5 C81.32624268 197.58041504 80.71498535 196.66083008 80.08520508 195.71337891 C76.45667394 190.2398902 72.89485818 184.7319964 69.39453125 179.17578125 C67.3738637 176.02308706 65.25762064 172.98802732 63 170 C62.67 170 62.34 170 62 170 Z M-61 171 C-62.15330947 172.57789598 -63.29737927 174.1625482 -64.4375 175.75 C-65.07558594 176.63171875 -65.71367187 177.5134375 -66.37109375 178.421875 C-67.8275081 180.72699125 -68.55931821 182.34349572 -69 185 C-64.13551318 180.31017747 -64.13551318 180.31017747 -60 175 C-60.34444421 172.8761091 -60.34444421 172.8761091 -61 171 Z M5 173 C5 173.66 5 174.32 5 175 C4.34 175 3.68 175 3 175 C3.33 176.65 3.66 178.3 4 180 C8.07964281 178.69844994 8.07964281 178.69844994 12 177 C11.67 176.01 11.34 175.02 11 174 C10.34 174 9.68 174 9 174 C9 174.66 9 175.32 9 176 C7.68 175.01 6.36 174.02 5 173 Z M-10 174 C-9.67 174.99 -9.34 175.98 -9 177 C-8.01 177 -7.02 177 -6 177 C-5.67 177.99 -5.34 178.98 -5 180 C-3.68 179.67 -2.36 179.34 -1 179 C-1 177.68 -1 176.36 -1 175 C-3.97 174.67 -6.94 174.34 -10 174 Z M63 181 C64 184 64 184 64 184 Z M-62 182 C-62.84735671 183.07764878 -63.65306538 184.1882213 -64.4375 185.3125 C-65.08525391 186.23482422 -65.08525391 186.23482422 -65.74609375 187.17578125 C-68.36044494 190.73069604 -68.36044494 190.73069604 -69 195 C-69.99 195.495 -69.99 195.495 -71 196 C-77.07889446 206.18625559 -81.00082846 217.46707649 -85.09082031 228.54882812 C-86.36417512 231.98182551 -87.68008838 235.39713547 -89 238.8125 C-89.391875 239.82957031 -89.78375 240.84664062 -90.1875 241.89453125 C-90.455625 242.58933594 -90.72375 243.28414062 -91 244 C-89.35254404 245.64745596 -87.44664549 245.1709616 -85.1875 245.1875 C-84.31480469 245.20167969 -83.44210938 245.21585938 -82.54296875 245.23046875 C-79.89080915 244.99010406 -78.27535001 244.34187309 -76 243 C-76.66 242.67 -77.32 242.34 -78 242 C-78.30544673 233.94525665 -78.47452739 227.34996178 -75 220 C-73.53593444 216.82785796 -72.93813562 214.39586696 -72.7578125 210.94921875 C-72.16937062 205.32047173 -69.78312287 201.09727233 -67 196.25 C-66.07753652 194.61262732 -65.16066578 192.97208851 -64.25 191.328125 C-63.84265625 190.6155957 -63.4353125 189.90306641 -63.015625 189.16894531 C-61.90235932 186.79148081 -61.41649674 184.58386431 -61 182 C-61.33 182 -61.66 182 -62 182 Z M64 184 C65.36280804 188.68862454 67.34898171 192.3737958 69.9375 196.5 C73.61313415 202.59100393 75.28329002 207.98306674 76.4296875 215.0390625 C76.96158349 217.80054989 77.66337695 219.56578503 79 222 C79.7589125 223.85053664 80.50803127 225.70510494 81.25 227.5625 C83.74904963 233.62735775 86.74215635 239.31276779 90 245 C94.35615979 244.51804458 94.35615979 244.51804458 98 242.3125 C99.24507655 240.00709443 99.24507655 240.00709443 98.5625 237.375 C97.27363536 234.59105238 95.90569233 232.09562459 94.3203125 229.48046875 C93.78446533 228.59456055 93.24861816 227.70865234 92.6965332 226.79589844 C91.85674927 225.41192871 91.85674927 225.41192871 91 224 C90.4639917 223.11086914 89.9279834 222.22173828 89.37573242 221.30566406 C83.26239537 211.16629305 77.11522471 201.04621542 70.75 191.0625 C70.06997925 189.98053345 70.06997925 189.98053345 69.3762207 188.87670898 C68.30550186 187.21460833 67.16033133 185.60082748 66 184 C65.34 184 64.68 184 64 184 Z M-70 185 C-69 187 -69 187 -69 187 Z M-71 187 C-71 190 -71 190 -71 190 Z M11 189 C12 191 12 191 12 191 Z M-73 190 C-83.33812729 205.65324101 -83.33812729 205.65324101 -93.375 221.5 C-94.40753906 223.15515625 -94.40753906 223.15515625 -95.4609375 224.84375 C-97.45237112 228.92770524 -98.57638046 232.71463134 -97.44140625 237.21484375 C-97.15136719 237.78332031 -96.86132812 238.35179687 -96.5625 238.9375 C-96.046875 239.948125 -95.53125 240.95875 -95 242 C-94.34 242 -93.68 242 -93 242 C-91.53914925 238.29265349 -90.08176912 234.58395204 -88.625 230.875 C-88.2125 229.82828125 -87.8 228.7815625 -87.375 227.703125 C-86.97539063 226.68476563 -86.57578125 225.66640625 -86.1640625 224.6171875 C-85.79748535 223.68503418 -85.4309082 222.75288086 -85.05322266 221.79248047 C-83.95649925 218.88466353 -82.97426495 215.95079829 -82 213 C-79.41414969 206.2767892 -76.58288593 199.89298119 -72.8203125 193.7421875 C-72.41425781 192.87980469 -72.41425781 192.87980469 -72 192 C-72.33 191.34 -72.66 190.68 -73 190 Z M3 190 C3 191.32 3 192.64 3 194 C4.98 193.67 6.96 193.34 9 193 C8.34 192.67 7.68 192.34 7 192 C7 191.34 7 190.68 7 190 C5.68 190 4.36 190 3 190 Z M9 190 C9 190.66 9 191.32 9 192 C9.66 191.67 10.32 191.34 11 191 C10.34 190.67 9.68 190.34 9 190 Z M-2 190 C-4.31 190.33 -6.62 190.66 -9 191 C-8.67 191.66 -8.34 192.32 -8 193 C-5.67843403 193.40729228 -3.3431213 193.74438677 -1 194 C-1.33 192.68 -1.66 191.36 -2 190 Z M-39 192 C-38 195 -38 195 -38 195 Z M87 200 C88 202 88 202 88 202 Z M-86 201 C-86.33 202.32 -86.66 203.64 -87 205 C-86.34 204.67 -85.68 204.34 -85 204 C-85.33 203.01 -85.66 202.02 -86 201 Z M-22 201 C-26.56192331 205.06393342 -26.56192331 205.06393342 -28.26953125 210.69140625 C-28.26308594 211.70074219 -28.25664062 212.71007812 -28.25 213.75 C-28.58160517 225.67396919 -36.72654932 236.65777515 -43.09082031 246.37768555 C-44.16296106 247.98083184 -44.16296106 247.98083184 -44 250 C-13.97 250 16.06 250 47 250 C42.51927681 241.78432887 42.51927681 241.78432887 37.9375 233.625 C33.3787808 225.21723029 29.04463971 216.74467497 30 207 C29.38125 206.7525 28.7625 206.505 28.125 206.25 C25.64931313 204.79371361 25.04874998 203.62187494 24 201 C23.67 201.99 23.34 202.98 23 204 C22.01 203.67 21.02 203.34 20 203 C20.495 205.475 20.495 205.475 21 208 C20.34 208.33 19.68 208.66 19 209 C19 210.32 19 211.64 19 213 C18.34 213 17.68 213 17 213 C17 213.66 17 214.32 17 215 C16.01 215.33 15.02 215.66 14 216 C13.505 218.475 13.505 218.475 13 221 C10.525 220.01 10.525 220.01 8 219 C8 220.65 8 222.3 8 224 C7.01 223.01 6.02 222.02 5 221 C4.505 222.485 4.505 222.485 4 224 C4.495 224.99 4.495 224.99 5 226 C2.69 225.34 0.38 224.68 -2 224 C-2 223.01 -2 222.02 -2 221 C-3.65 221.66 -5.3 222.32 -7 223 C-6.67 221.68 -6.34 220.36 -6 219 C-8.31 218.67 -10.62 218.34 -13 218 C-13 217.34 -13 216.68 -13 216 C-13.99 216 -14.98 216 -16 216 C-16 215.34 -16 214.68 -16 214 C-15.01 213.67 -14.02 213.34 -13 213 C-14.65 213 -16.3 213 -18 213 C-18 209.7 -18 206.4 -18 203 C-18.99 203.495 -18.99 203.495 -20 204 C-20.66 203.01 -21.32 202.02 -22 201 Z M3 204 C3 205.32 3 206.64 3 208 C4.65 207.67 6.3 207.34 8 207 C6.62514468 205.45833358 6.62514468 205.45833358 5 204 C4.34 204 3.68 204 3 204 Z M-88 205 C-87 207 -87 207 -87 207 Z M-6 207 C-3.525 207.495 -3.525 207.495 -1 208 C-1.33 207.01 -1.66 206.02 -2 205 C-3.46225016 204.90754997 -3.46225016 204.90754997 -6 207 Z M-90 208 C-89 210 -89 210 -89 210 Z M-92 212 C-91 214 -91 214 -91 214 Z M-68 218 C-73.32104183 223.4419746 -75.09330664 227.87423807 -75.125 235.375 C-75.09316134 236.91690094 -75.05482724 238.45874525 -75 240 C-72.25399995 241.09582162 -71.20726655 241.08328233 -68.4140625 239.9609375 C-63.19354196 236.99240621 -58.42846633 234.06940149 -54 230 C-55.485 222.575 -55.485 222.575 -57 215 C-62.12375021 215 -63.78405087 215.36503179 -68 218 Z M59 215 C56.70559513 223.67660194 56.70559513 223.67660194 58.0390625 232.12109375 C59.92536092 233.77048739 61.77226796 234.84900512 64 236 C64.9178125 236.56460938 65.835625 237.12921875 66.78125 237.7109375 C71.72010347 241.01466547 71.72010347 241.01466547 77.33203125 241.66015625 C77.88246094 241.44230469 78.43289063 241.22445312 79 241 C79.40514462 233.57234859 78.21582661 227.56114992 74.25 221.1875 C70.5766007 217.61613957 67.07569458 215.06784958 61.7734375 214.89453125 C60.40058594 214.94673828 60.40058594 214.94673828 59 215 Z M37 216 C37.30907056 223.10862283 40.59812768 228.35208257 44.0625 234.4375 C44.63033203 235.45521484 45.19816406 236.47292969 45.78320312 237.52148438 C47.17908512 240.01999585 48.58482354 242.51238264 50 245 C50.66 245 51.32 245 52 245 C52.12375 245.639375 52.2475 246.27875 52.375 246.9375 C52.58125 247.618125 52.7875 248.29875 53 249 C56.22603545 250.61301773 59.74710038 250.12053599 63.2890625 250.09765625 C64.10748627 250.0962413 64.92591003 250.09482635 65.76913452 250.09336853 C68.38779325 250.0877629 71.00636704 250.07520948 73.625 250.0625 C75.39843627 250.05748572 77.17187387 250.05292269 78.9453125 250.04882812 C83.29690782 250.03779164 87.6484395 250.02052325 92 250 C92 249.67 92 249.34 92 249 C91.21496094 248.89042969 90.42992187 248.78085937 89.62109375 248.66796875 C83.63914075 247.76517094 78.41925291 246.80639883 73 244 C72.14277344 243.56171875 71.28554688 243.1234375 70.40234375 242.671875 C61.16119377 237.65559859 52.63680675 231.02978481 45.44165039 223.33300781 C44.08250346 221.77370014 44.08250346 221.77370014 42 222 C41.731875 221.38125 41.46375 220.7625 41.1875 220.125 C40.04443152 217.7004767 40.04443152 217.7004767 37 216 Z M82 237 C82 239.31 82 241.62 82 244 C83.32 244.33 84.64 244.66 86 245 C84.73025028 240.58477891 84.73025028 240.58477891 82 237 Z " fill="#FAFAFA" transform="translate(199,134)"/>
<path d="M0 0 C4.9980883 5.17043617 6.82234113 11.56526188 7.1875 18.625 C7.125625 19.40875 7.06375 20.1925 7 21 C5.68 21 4.36 21 3 21 C2.34 20.01 1.68 19.02 1 18 C1.66 17.34 2.32 16.68 3 16 C2.79503906 15.32453125 2.59007812 14.6490625 2.37890625 13.953125 C2.10949219 13.06109375 1.84007812 12.1690625 1.5625 11.25 C1.29566406 10.36828125 1.02882813 9.4865625 0.75390625 8.578125 C0.50511719 7.72734375 0.25632812 6.8765625 0 6 C-0.21785156 5.27296875 -0.43570312 4.5459375 -0.66015625 3.796875 C-1 2 -1 2 0 0 Z " fill="#F5F5F5" transform="translate(269,331)"/>
<path d="M0 0 C0.33 0.99 0.66 1.98 1 3 C1.99 3.33 2.98 3.66 4 4 C3.91266424 5.60517097 3.80447776 7.20921662 3.6875 8.8125 C3.62949219 9.70582031 3.57148438 10.59914063 3.51171875 11.51953125 C2.93686419 14.30604 2.1793144 15.24135754 0 17 C-1.22329074 13.33012779 -0.88021006 10.66032178 -0.5625 6.8125 C-0.46066406 5.54019531 -0.35882813 4.26789063 -0.25390625 2.95703125 C-0.17011719 1.98121094 -0.08632812 1.00539063 0 0 Z " fill="#F4F4F4" transform="translate(240,330)"/>
<path d="M0 0 C2.39763185 2.39763185 2.34280586 3.33273498 2.625 6.625 C2.69976562 7.44226563 2.77453125 8.25953125 2.8515625 9.1015625 C2.92503906 10.04128906 2.92503906 10.04128906 3 11 C2.67 11 2.34 11 2 11 C1.67 12.65 1.34 14.3 1 16 C0.34 15.67 -0.32 15.34 -1 15 C-1.59355614 12.35139573 -1.74209269 9.70802678 -2 7 C-1.34 7 -0.68 7 0 7 C0 4.69 0 2.38 0 0 Z " fill="#E7E7E7" transform="translate(172,307)"/>
<path d="M0 0 C1.65 0.33 3.3 0.66 5 1 C5.33 2.65 5.66 4.3 6 6 C4.68 6.33 3.36 6.66 2 7 C2.66 7.33 3.32 7.66 4 8 C3.01 8.33 2.02 8.66 1 9 C1 8.34 1 7.68 1 7 C0.34 6.67 -0.32 6.34 -1 6 C-1.33 5.34 -1.66 4.68 -2 4 C-1.34 3.34 -0.68 2.68 0 2 C0 1.34 0 0.68 0 0 Z " fill="#DDDDDD" transform="translate(214,246)"/>
<path d="M0 0 C2.97 0.495 2.97 0.495 6 1 C5.67 3.31 5.34 5.62 5 8 C4.38125 8.144375 3.7625 8.28875 3.125 8.4375 C0.96741678 8.93152225 0.96741678 8.93152225 -1 10 C-0.649375 9.0925 -0.29875 8.185 0.0625 7.25 C0.96468779 4.12241564 1.13381507 2.94791919 0 0 Z " fill="#EFEFEF" transform="translate(160,268)"/>
<path d="M0 0 C0.66 0 1.32 0 2 0 C4.42857143 8.42857143 4.42857143 8.42857143 3 13 C0.73437327 10.73437327 0.05537251 9.15839295 -0.09765625 5.95703125 C-0.06510417 3.97135417 -0.03255208 1.98567708 0 0 Z " fill="#B4B4B4" transform="translate(168,214)"/>
<path d="M0 0 C0.66 0.33 1.32 0.66 2 1 C1.88557539 2.60495567 1.75805306 4.20898119 1.625 5.8125 C1.55539063 6.70582031 1.48578125 7.59914062 1.4140625 8.51953125 C1 11 1 11 -1 14 C-2 13 -2 13 -2.1875 9.25 C-2.15615249 5.76415714 -1.57760458 3.15520917 0 0 Z " fill="#A5A5A5" transform="translate(230,212)"/>
<path d="M0 0 C-1 2 -1 2 -2 3 C-1.01 3.33 -0.02 3.66 1 4 C0.34 4 -0.32 4 -1 4 C-1.33 5.65 -1.66 7.3 -2 9 C-6 4.375 -6 4.375 -6 1 C-3 0 -3 0 0 0 Z " fill="#ECECEC" transform="translate(163,214)"/>
<path d="M0 0 C0.33 0.66 0.66 1.32 1 2 C1.99 1.67 2.98 1.34 4 1 C7 6.75 7 6.75 7 9 C6.01 9.33 5.02 9.66 4 10 C0 3.375 0 3.375 0 0 Z " fill="#EEEEEE" transform="translate(280,367)"/>
<path d="M0 0 C2.31 0.33 4.62 0.66 7 1 C7.33 2.32 7.66 3.64 8 5 C7.01 5 6.02 5 5 5 C4.67 5.66 4.34 6.32 4 7 C2.02 3.535 2.02 3.535 0 0 Z " fill="#E6E6E6" transform="translate(290,342)"/>
<path d="M0 0 C0.66 0 1.32 0 2 0 C2 0.66 2 1.32 2 2 C2.66 2.33 3.32 2.66 4 3 C3.34 4.65 2.68 6.3 2 8 C3.32 8.33 4.64 8.66 6 9 C4.68 9 3.36 9 2 9 C1.67 9.99 1.34 10.98 1 12 C0.67 8.04 0.34 4.08 0 0 Z " fill="#FDFDFD" transform="translate(255,339)"/>
<path d="M0 0 C0 1.65 0 3.3 0 5 C-0.99 5 -1.98 5 -3 5 C-2.67 5.66 -2.34 6.32 -2 7 C-2.99 7.33 -3.98 7.66 -5 8 C-5.93423645 4.98968256 -6.04449911 4.13349732 -5 1 C-2 0 -2 0 0 0 Z " fill="#E9E9E9" transform="translate(179,293)"/>
<path d="M0 0 C1.32 0 2.64 0 4 0 C4 0.66 4 1.32 4 2 C4.66 2 5.32 2 6 2 C5.34 3.32 4.68 4.64 4 6 C3.34 6 2.68 6 2 6 C2 5.34 2 4.68 2 4 C1.34 4 0.68 4 0 4 C0 2.68 0 1.36 0 0 Z " fill="#EFEFEF" transform="translate(236,214)"/>
<path d="M0 0 C0.66 0 1.32 0 2 0 C2 1.65 2 3.3 2 5 C1.01 5 0.02 5 -1 5 C-1.33 6.32 -1.66 7.64 -2 9 C-2.33 9 -2.66 9 -3 9 C-3 7.02 -3 5.04 -3 3 C-2.34 3 -1.68 3 -1 3 C-0.67 2.01 -0.34 1.02 0 0 Z " fill="#FAFAFA" transform="translate(149,320)"/>
<path d="M0 0 C0.33 0 0.66 0 1 0 C1 1.98 1 3.96 1 6 C-0.32 6 -1.64 6 -3 6 C-3.66 5.01 -4.32 4.02 -5 3 C-4.360625 2.87625 -3.72125 2.7525 -3.0625 2.625 C-2.0415625 2.315625 -2.0415625 2.315625 -1 2 C-0.67 1.34 -0.34 0.68 0 0 Z " fill="#E0E0E0" transform="translate(275,346)"/>
<path d="M0 0 C0.66 0.33 1.32 0.66 2 1 C2.59355614 3.64860427 2.74209269 6.29197322 3 9 C1.68 9 0.36 9 -1 9 C-0.67 6.03 -0.34 3.06 0 0 Z " fill="#D6D6D6" transform="translate(226,313)"/>
<path d="M0 0 C1.9375 0.625 1.9375 0.625 4 2 C4.75 5.125 4.75 5.125 5 8 C0.125 4.375 0.125 4.375 -1 1 C-0.67 0.67 -0.34 0.34 0 0 Z " fill="#F4F4F4" transform="translate(254,282)"/>
<path d="M0 0 C1.98 0.99 3.96 1.98 6 3 C6 4.32 6 5.64 6 7 C4.35 6.67 2.7 6.34 1 6 C0.67 4.02 0.34 2.04 0 0 Z " fill="#E8E8E8" transform="translate(180,248)"/>
<path d="M0 0 C0.66 0 1.32 0 2 0 C2.33 1.98 2.66 3.96 3 6 C2.01 6.33 1.02 6.66 0 7 C-0.93423645 3.98968256 -1.04449911 3.13349732 0 0 Z " fill="#FDFDFD" transform="translate(143,350)"/>
<path d="M0 0 C1.65 0 3.3 0 5 0 C5.33 1.32 5.66 2.64 6 4 C4.02 4 2.04 4 0 4 C0 2.68 0 1.36 0 0 Z " fill="#ECECEC" transform="translate(212,231)"/>
<path d="" fill="#E9E9E9" transform="translate(0,0)"/>
<path d="M0 0 C0.33 0.66 0.66 1.32 1 2 C0.34 1.67 -0.32 1.34 -1 1 C-0.67 0.67 -0.34 0.34 0 0 Z " fill="#D6D6D6" transform="translate(280,348)"/>
<path d="M0 0 C2 1 2 1 2 1 Z " fill="#F9F9F9" transform="translate(345,391)"/>
<path d="M0 0 C2 1 2 1 2 1 Z " fill="#F5F5F5" transform="translate(296,382)"/>
<path d="" fill="#DCDCDC" transform="translate(0,0)"/>
<path d="M0 0 C2 1 2 1 2 1 Z " fill="#DADADA" transform="translate(113,376)"/>
<path d="" fill="#DFDFDF" transform="translate(0,0)"/>
<path d="M0 0 C2 1 2 1 2 1 Z " fill="#D8D8D8" transform="translate(336,373)"/>
<path d="M0 0 C2 1 2 1 2 1 Z " fill="#E8E8E8" transform="translate(136,367)"/>
<path d="M0 0 C2 1 2 1 2 1 Z " fill="#E2E2E2" transform="translate(211,359)"/>
<path d="" fill="#E1E1E1" transform="translate(0,0)"/>
<path d="M0 0 C2 1 2 1 2 1 Z " fill="#E0E0E0" transform="translate(251,349)"/>
<path d="M0 0 C2 1 2 1 2 1 Z " fill="#EBEBEB" transform="translate(157,346)"/>
<path d="" fill="#E8E8E8" transform="translate(0,0)"/>
<path d="M0 0 C2 1 2 1 2 1 Z " fill="#F6F6F6" transform="translate(223,307)"/>
<path d="" fill="#E5E5E5" transform="translate(0,0)"/>
<path d="M0 0 C2 1 2 1 2 1 Z " fill="#EAEAEA" transform="translate(251,236)"/>
<path d="" fill="#EAEAEA" transform="translate(0,0)"/>
<path d="" fill="#E8E8E8" transform="translate(0,0)"/>
<path d="" fill="#F9F9F9" transform="translate(0,0)"/>
<path d="" fill="#DADADA" transform="translate(0,0)"/>
<path d="" fill="#E2E2E2" transform="translate(0,0)"/>
<path d="" fill="#F5F5F5" transform="translate(0,0)"/>
<path d="" fill="#EEEEEE" transform="translate(0,0)"/>
<path d="" fill="#FAFAFA" transform="translate(0,0)"/>
<path d="" fill="#F9F9F9" transform="translate(0,0)"/>
<path d="" fill="#FAFAFA" transform="translate(0,0)"/>
<path d="" fill="#F7F7F7" transform="translate(0,0)"/>
<path d="" fill="#F5F5F5" transform="translate(0,0)"/>
<path d="" fill="#F0F0F0" transform="translate(0,0)"/>
<path d="" fill="#F8F8F8" transform="translate(0,0)"/>
<path d="" fill="#FAFAFA" transform="translate(0,0)"/>
<path d="" fill="#E4E4E4" transform="translate(0,0)"/>
<path d="" fill="#FAFAFA" transform="translate(0,0)"/>
<path d="" fill="#E3E3E3" transform="translate(0,0)"/>
<path d="" fill="#F4F4F4" transform="translate(0,0)"/>
<path d="" fill="#F2F2F2" transform="translate(0,0)"/>
<path d="" fill="#E2E2E2" transform="translate(0,0)"/>
<path d="" fill="#F3F3F3" transform="translate(0,0)"/>
<path d="" fill="#F8F8F8" transform="translate(0,0)"/>
<path d="" fill="#F9F9F9" transform="translate(0,0)"/>
<path d="" fill="#ECECEC" transform="translate(0,0)"/>
<path d="" fill="#FBFBFB" transform="translate(0,0)"/>
<path d="" fill="#EEEEEE" transform="translate(0,0)"/>
<path d="" fill="#F6F6F6" transform="translate(0,0)"/>
<path d="" fill="#FCFCFC" transform="translate(0,0)"/>
<path d="" fill="#F4F4F4" transform="translate(0,0)"/>
<path d="" fill="#DDDDDD" transform="translate(0,0)"/>
<path d="" fill="#FBFBFB" transform="translate(0,0)"/>
<path d="" fill="#E3E3E3" transform="translate(0,0)"/>
<path d="" fill="#E0E0E0" transform="translate(0,0)"/>
<path d="" fill="#FBFBFB" transform="translate(0,0)"/>
<path d="" fill="#E0E0E0" transform="translate(0,0)"/>
<path d="" fill="#FAFAFA" transform="translate(0,0)"/>
<path d="" fill="#D4D4D4" transform="translate(0,0)"/>
<path d="" fill="#F8F8F8" transform="translate(0,0)"/>
<path d="" fill="#DDDDDD" transform="translate(0,0)"/>
<path d="" fill="#EDEDED" transform="translate(0,0)"/>
<path d="" fill="#F2F2F2" transform="translate(0,0)"/>
<path d="" fill="#DEDEDE" transform="translate(0,0)"/>
<path d="" fill="#D4D4D4" transform="translate(0,0)"/>
<path d="" fill="#D0D0D0" transform="translate(0,0)"/>
<path d="" fill="#F4F4F4" transform="translate(0,0)"/>
<path d="" fill="#D9D9D9" transform="translate(0,0)"/>
<path d="" fill="#F5F5F5" transform="translate(0,0)"/>
<path d="" fill="#FAFAFA" transform="translate(0,0)"/>
<path d="" fill="#DDDDDD" transform="translate(0,0)"/>
<path d="" fill="#F5F5F5" transform="translate(0,0)"/>
<path d="" fill="#F4F4F4" transform="translate(0,0)"/>
<path d="" fill="#E4E4E4" transform="translate(0,0)"/>
<path d="" fill="#D3D3D3" transform="translate(0,0)"/>
<path d="" fill="#CECECE" transform="translate(0,0)"/>
<path d="" fill="#DADADA" transform="translate(0,0)"/>
<path d="" fill="#EFEFEF" transform="translate(0,0)"/>
<path d="" fill="#F2F2F2" transform="translate(0,0)"/>
<path d="" fill="#DBDBDB" transform="translate(0,0)"/>
<path d="" fill="#F7F7F7" transform="translate(0,0)"/>
<path d="" fill="#D3D3D3" transform="translate(0,0)"/>
<path d="" fill="#DCDCDC" transform="translate(0,0)"/>
<path d="" fill="#CFCFCF" transform="translate(0,0)"/>
<path d="" fill="#D8D8D8" transform="translate(0,0)"/>
<path d="" fill="#DEDEDE" transform="translate(0,0)"/>
<path d="" fill="#D2D2D2" transform="translate(0,0)"/>
<path d="" fill="#D2D2D2" transform="translate(0,0)"/>
<path d="" fill="#F1F1F1" transform="translate(0,0)"/>
<path d="" fill="#D9D9D9" transform="translate(0,0)"/>
<path d="" fill="#D0D0D0" transform="translate(0,0)"/>
<path d="" fill="#F9F9F9" transform="translate(0,0)"/>
<path d="" fill="#EEEEEE" transform="translate(0,0)"/>
<path d="" fill="#D6D6D6" transform="translate(0,0)"/>
<path d="" fill="#DADADA" transform="translate(0,0)"/>
<path d="" fill="#DFDFDF" transform="translate(0,0)"/>
<path d="" fill="#F3F3F3" transform="translate(0,0)"/>
<path d="" fill="#EFEFEF" transform="translate(0,0)"/>
<path d="" fill="#EEEEEE" transform="translate(0,0)"/>
<path d="" fill="#E1E1E1" transform="translate(0,0)"/>
<path d="" fill="#E1E1E1" transform="translate(0,0)"/>
<path d="" fill="#F8F8F8" transform="translate(0,0)"/>
<path d="" fill="#F2F2F2" transform="translate(0,0)"/>
<path d="" fill="#EFEFEF" transform="translate(0,0)"/>
<path d="" fill="#F9F9F9" transform="translate(0,0)"/>
<path d="" fill="#D1D1D1" transform="translate(0,0)"/>
<path d="" fill="#F6F6F6" transform="translate(0,0)"/>
<path d="" fill="#FCFCFC" transform="translate(0,0)"/>
<path d="" fill="#E9E9E9" transform="translate(0,0)"/>
<path d="" fill="#F5F5F5" transform="translate(0,0)"/>
<path d="" fill="#FDFDFD" transform="translate(0,0)"/>
<path d="" fill="#D6D6D6" transform="translate(0,0)"/>
<path d="" fill="#F7F7F7" transform="translate(0,0)"/>
<path d="" fill="#D5D5D5" transform="translate(0,0)"/>
<path d="" fill="#F0F0F0" transform="translate(0,0)"/>
<path d="" fill="#DEDEDE" transform="translate(0,0)"/>
<path d="" fill="#DDDDDD" transform="translate(0,0)"/>
<path d="" fill="#F9F9F9" transform="translate(0,0)"/>
<path d="" fill="#FBFBFB" transform="translate(0,0)"/>
<path d="" fill="#DEDEDE" transform="translate(0,0)"/>
<path d="" fill="#D9D9D9" transform="translate(0,0)"/>
<path d="" fill="#D1D1D1" transform="translate(0,0)"/>
<path d="" fill="#F8F8F8" transform="translate(0,0)"/>
<path d="" fill="#E0E0E0" transform="translate(0,0)"/>
<path d="" fill="#EEEEEE" transform="translate(0,0)"/>
<path d="" fill="#E0E0E0" transform="translate(0,0)"/>
<path d="" fill="#E3E3E3" transform="translate(0,0)"/>
<path d="" fill="#CECECE" transform="translate(0,0)"/>
<path d="" fill="#E6E6E6" transform="translate(0,0)"/>
<path d="" fill="#F8F8F8" transform="translate(0,0)"/>
<path d="" fill="#F2F2F2" transform="translate(0,0)"/>
<path d="" fill="#E1E1E1" transform="translate(0,0)"/>
<path d="" fill="#F6F6F6" transform="translate(0,0)"/>
<path d="" fill="#F5F5F5" transform="translate(0,0)"/>
<path d="" fill="#CECECE" transform="translate(0,0)"/>
<path d="" fill="#E1E1E1" transform="translate(0,0)"/>
<path d="" fill="#D5D5D5" transform="translate(0,0)"/>
<path d="" fill="#D3D3D3" transform="translate(0,0)"/>
<path d="" fill="#D4D4D4" transform="translate(0,0)"/>
<path d="" fill="#F1F1F1" transform="translate(0,0)"/>
<path d="" fill="#F3F3F3" transform="translate(0,0)"/>
<path d="" fill="#F9F9F9" transform="translate(0,0)"/>
<path d="" fill="#DEDEDE" transform="translate(0,0)"/>
<path d="" fill="#F6F6F6" transform="translate(0,0)"/>
<path d="" fill="#DDDDDD" transform="translate(0,0)"/>
<path d="" fill="#D3D3D3" transform="translate(0,0)"/>
<path d="" fill="#F5F5F5" transform="translate(0,0)"/>
<path d="" fill="#CFCFCF" transform="translate(0,0)"/>
<path d="" fill="#CDCDCD" transform="translate(0,0)"/>
<path d="" fill="#DCDCDC" transform="translate(0,0)"/>
<path d="" fill="#E2E2E2" transform="translate(0,0)"/>
<path d="" fill="#F6F6F6" transform="translate(0,0)"/>
<path d="" fill="#D7D7D7" transform="translate(0,0)"/>
<path d="" fill="#D5D5D5" transform="translate(0,0)"/>
<path d="" fill="#EAEAEA" transform="translate(0,0)"/>
<path d="" fill="#E0E0E0" transform="translate(0,0)"/>
<path d="" fill="#E8E8E8" transform="translate(0,0)"/>
<path d="" fill="#EAEAEA" transform="translate(0,0)"/>
<path d="" fill="#F3F3F3" transform="translate(0,0)"/>
<path d="" fill="#E2E2E2" transform="translate(0,0)"/>
<path d="" fill="#D2D2D2" transform="translate(0,0)"/>
<path d="" fill="#F7F7F7" transform="translate(0,0)"/>
<path d="" fill="#F6F6F6" transform="translate(0,0)"/>
<path d="" fill="#DDDDDD" transform="translate(0,0)"/>
<path d="" fill="#E7E7E7" transform="translate(0,0)"/>
<path d="" fill="#D4D4D4" transform="translate(0,0)"/>
<path d="" fill="#E0E0E0" transform="translate(0,0)"/>
<path d="" fill="#DEDEDE" transform="translate(0,0)"/>
<path d="" fill="#F7F7F7" transform="translate(0,0)"/>
<path d="" fill="#DBDBDB" transform="translate(0,0)"/>
<path d="" fill="#F2F2F2" transform="translate(0,0)"/>
<path d="" fill="#DEDEDE" transform="translate(0,0)"/>
<path d="" fill="#F6F6F6" transform="translate(0,0)"/>
<path d="" fill="#D0D0D0" transform="translate(0,0)"/>
<path d="" fill="#CFCFCF" transform="translate(0,0)"/>
<path d="" fill="#CDCDCD" transform="translate(0,0)"/>
<path d="" fill="#E0E0E0" transform="translate(0,0)"/>
<path d="" fill="#F5F5F5" transform="translate(0,0)"/>
<path d="" fill="#DFDFDF" transform="translate(0,0)"/>
<path d="" fill="#F7F7F7" transform="translate(0,0)"/>
<path d="" fill="#DEDEDE" transform="translate(0,0)"/>
<path d="" fill="#CFCFCF" transform="translate(0,0)"/>
<path d="" fill="#DCDCDC" transform="translate(0,0)"/>
<path d="" fill="#F6F6F6" transform="translate(0,0)"/>
<path d="" fill="#F5F5F5" transform="translate(0,0)"/>
<path d="" fill="#DFDFDF" transform="translate(0,0)"/>
<path d="" fill="#E2E2E2" transform="translate(0,0)"/>
<path d="" fill="#D9D9D9" transform="translate(0,0)"/>
<path d="" fill="#D7D7D7" transform="translate(0,0)"/>
<path d="" fill="#DCDCDC" transform="translate(0,0)"/>
<path d="" fill="#F5F5F5" transform="translate(0,0)"/>
<path d="" fill="#EEEEEE" transform="translate(0,0)"/>
<path d="" fill="#F7F7F7" transform="translate(0,0)"/>
<path d="" fill="#DBDBDB" transform="translate(0,0)"/>
<path d="" fill="#DDDDDD" transform="translate(0,0)"/>
<path d="" fill="#D4D4D4" transform="translate(0,0)"/>
<path d="" fill="#D7D7D7" transform="translate(0,0)"/>
<path d="" fill="#F6F6F6" transform="translate(0,0)"/>
<path d="" fill="#F1F1F1" transform="translate(0,0)"/>
<path d="" fill="#F3F3F3" transform="translate(0,0)"/>
<path d="" fill="#CFCFCF" transform="translate(0,0)"/>
<path d="" fill="#DEDEDE" transform="translate(0,0)"/>
<path d="" fill="#F1F1F1" transform="translate(0,0)"/>
<path d="" fill="#E7E7E7" transform="translate(0,0)"/>
<path d="" fill="#E4E4E4" transform="translate(0,0)"/>
<path d="" fill="#E9E9E9" transform="translate(0,0)"/>
<path d="" fill="#D5D5D5" transform="translate(0,0)"/>
<path d="" fill="#F5F5F5" transform="translate(0,0)"/>
<path d="" fill="#CBCBCB" transform="translate(0,0)"/>
<path d="" fill="#CDCDCD" transform="translate(0,0)"/>
<path d="" fill="#E7E7E7" transform="translate(0,0)"/>
<path d="" fill="#E7E7E7" transform="translate(0,0)"/>
<path d="" fill="#F7F7F7" transform="translate(0,0)"/>
<path d="" fill="#F8F8F8" transform="translate(0,0)"/>
<path d="" fill="#DCDCDC" transform="translate(0,0)"/>
<path d="" fill="#ECECEC" transform="translate(0,0)"/>
<path d="" fill="#F3F3F3" transform="translate(0,0)"/>
<path d="" fill="#CCCCCC" transform="translate(0,0)"/>
<path d="" fill="#DFDFDF" transform="translate(0,0)"/>
<path d="" fill="#FAFAFA" transform="translate(0,0)"/>
<path d="" fill="#E2E2E2" transform="translate(0,0)"/>
<path d="" fill="#F5F5F5" transform="translate(0,0)"/>
<path d="" fill="#CFCFCF" transform="translate(0,0)"/>
<path d="" fill="#EFEFEF" transform="translate(0,0)"/>
<path d="" fill="#CCCCCC" transform="translate(0,0)"/>
<path d="" fill="#CECECE" transform="translate(0,0)"/>
<path d="" fill="#DFDFDF" transform="translate(0,0)"/>
<path d="" fill="#F7F7F7" transform="translate(0,0)"/>
<path d="" fill="#F6F6F6" transform="translate(0,0)"/>
<path d="" fill="#F9F9F9" transform="translate(0,0)"/>
<path d="" fill="#CDCDCD" transform="translate(0,0)"/>
<path d="" fill="#E2E2E2" transform="translate(0,0)"/>
<path d="" fill="#F7F7F7" transform="translate(0,0)"/>
<path d="" fill="#E1E1E1" transform="translate(0,0)"/>
<path d="" fill="#FAFAFA" transform="translate(0,0)"/>
<path d="" fill="#D6D6D6" transform="translate(0,0)"/>
<path d="" fill="#E0E0E0" transform="translate(0,0)"/>
<path d="" fill="#E2E2E2" transform="translate(0,0)"/>
<path d="" fill="#F5F5F5" transform="translate(0,0)"/>
<path d="" fill="#F4F4F4" transform="translate(0,0)"/>
<path d="" fill="#F4F4F4" transform="translate(0,0)"/>
<path d="" fill="#FCFCFC" transform="translate(0,0)"/>
<path d="" fill="#D5D5D5" transform="translate(0,0)"/>
<path d="" fill="#D5D5D5" transform="translate(0,0)"/>
<path d="" fill="#EEEEEE" transform="translate(0,0)"/>
<path d="" fill="#E5E5E5" transform="translate(0,0)"/>
<path d="" fill="#D7D7D7" transform="translate(0,0)"/>
<path d="" fill="#F5F5F5" transform="translate(0,0)"/>
<path d="" fill="#F6F6F6" transform="translate(0,0)"/>
<path d="" fill="#F4F4F4" transform="translate(0,0)"/>
<path d="" fill="#F7F7F7" transform="translate(0,0)"/>
<path d="" fill="#F9F9F9" transform="translate(0,0)"/>
<path d="" fill="#DCDCDC" transform="translate(0,0)"/>
<path d="" fill="#CECECE" transform="translate(0,0)"/>
<path d="" fill="#CECECE" transform="translate(0,0)"/>
<path d="" fill="#F6F6F6" transform="translate(0,0)"/>
<path d="" fill="#D3D3D3" transform="translate(0,0)"/>
<path d="" fill="#E1E1E1" transform="translate(0,0)"/>
<path d="" fill="#CECECE" transform="translate(0,0)"/>
<path d="" fill="#D1D1D1" transform="translate(0,0)"/>
<path d="" fill="#E7E7E7" transform="translate(0,0)"/>
<path d="" fill="#D5D5D5" transform="translate(0,0)"/>
<path d="" fill="#CECECE" transform="translate(0,0)"/>
<path d="" fill="#D5D5D5" transform="translate(0,0)"/>
<path d="" fill="#D6D6D6" transform="translate(0,0)"/>
<path d="" fill="#E0E0E0" transform="translate(0,0)"/>
<path d="" fill="#F8F8F8" transform="translate(0,0)"/>
<path d="" fill="#E0E0E0" transform="translate(0,0)"/>
<path d="" fill="#F2F2F2" transform="translate(0,0)"/>
<path d="" fill="#DCDCDC" transform="translate(0,0)"/>
<path d="" fill="#F7F7F7" transform="translate(0,0)"/>
<path d="" fill="#F6F6F6" transform="translate(0,0)"/>
<path d="" fill="#FBFBFB" transform="translate(0,0)"/>
<path d="" fill="#CFCFCF" transform="translate(0,0)"/>
<path d="" fill="#F9F9F9" transform="translate(0,0)"/>
<path d="" fill="#F7F7F7" transform="translate(0,0)"/>
<path d="" fill="#F8F8F8" transform="translate(0,0)"/>
<path d="" fill="#E1E1E1" transform="translate(0,0)"/>
<path d="" fill="#D1D1D1" transform="translate(0,0)"/>
<path d="" fill="#D0D0D0" transform="translate(0,0)"/>
<path d="" fill="#FBFBFB" transform="translate(0,0)"/>
<path d="" fill="#FAFAFA" transform="translate(0,0)"/>
<path d="" fill="#F9F9F9" transform="translate(0,0)"/>
<path d="" fill="#DFDFDF" transform="translate(0,0)"/>
<path d="" fill="#DFDFDF" transform="translate(0,0)"/>
<path d="" fill="#F8F8F8" transform="translate(0,0)"/>
<path d="" fill="#D4D4D4" transform="translate(0,0)"/>
<path d="" fill="#D7D7D7" transform="translate(0,0)"/>
<path d="" fill="#D9D9D9" transform="translate(0,0)"/>
<path d="" fill="#FCFCFC" transform="translate(0,0)"/>
<path d="" fill="#E3E3E3" transform="translate(0,0)"/>
<path d="" fill="#ECECEC" transform="translate(0,0)"/>
<path d="" fill="#F8F8F8" transform="translate(0,0)"/>
<path d="" fill="#F2F2F2" transform="translate(0,0)"/>
<path d="" fill="#FAFAFA" transform="translate(0,0)"/>
<path d="" fill="#FBFBFB" transform="translate(0,0)"/>
<path d="" fill="#E3E3E3" transform="translate(0,0)"/>
<path d="" fill="#DBDBDB" transform="translate(0,0)"/>
<path d="" fill="#FBFBFB" transform="translate(0,0)"/>
<path d="" fill="#D5D5D5" transform="translate(0,0)"/>
<path d="" fill="#E4E4E4" transform="translate(0,0)"/>
<path d="" fill="#D8D8D8" transform="translate(0,0)"/>
<path d="" fill="#FCFCFC" transform="translate(0,0)"/>
<path d="" fill="#F6F6F6" transform="translate(0,0)"/>
<path d="" fill="#F9F9F9" transform="translate(0,0)"/>
<path d="" fill="#DADADA" transform="translate(0,0)"/>
<path d="" fill="#DDDDDD" transform="translate(0,0)"/>
<path d="" fill="#DADADA" transform="translate(0,0)"/>
<path d="" fill="#D8D8D8" transform="translate(0,0)"/>
<path d="" fill="#E8E8E8" transform="translate(0,0)"/>
<path d="" fill="#EBEBEB" transform="translate(0,0)"/>
<path d="" fill="#D9D9D9" transform="translate(0,0)"/>
<path d="" fill="#F9F9F9" transform="translate(0,0)"/>
<path d="" fill="#E8E8E8" transform="translate(0,0)"/>
<path d="" fill="#F9F9F9" transform="translate(0,0)"/>
<path d="" fill="#E3E3E3" transform="translate(0,0)"/>
<path d="" fill="#F0F0F0" transform="translate(0,0)"/>
<path d="" fill="#E3E3E3" transform="translate(0,0)"/>
<path d="" fill="#F7F7F7" transform="translate(0,0)"/>
<path d="" fill="#DADADA" transform="translate(0,0)"/>
<path d="" fill="#F4F4F4" transform="translate(0,0)"/>
<path d="" fill="#FBFBFB" transform="translate(0,0)"/>
<path d="" fill="#D2D2D2" transform="translate(0,0)"/>
<path d="" fill="#D3D3D3" transform="translate(0,0)"/>
<path d="" fill="#F7F7F7" transform="translate(0,0)"/>
<path d="" fill="#F9F9F9" transform="translate(0,0)"/>
<path d="" fill="#C4C4C4" transform="translate(0,0)"/>
<path d="" fill="#FBFBFB" transform="translate(0,0)"/>
<path d="" fill="#DADADA" transform="translate(0,0)"/>
<path d="" fill="#EBEBEB" transform="translate(0,0)"/>
<path d="" fill="#F7F7F7" transform="translate(0,0)"/>
<path d="" fill="#DBDBDB" transform="translate(0,0)"/>
<path d="" fill="#E4E4E4" transform="translate(0,0)"/>
<path d="" fill="#F8F8F8" transform="translate(0,0)"/>
<path d="" fill="#DDDDDD" transform="translate(0,0)"/>
<path d="" fill="#E8E8E8" transform="translate(0,0)"/>
<path d="" fill="#F5F5F5" transform="translate(0,0)"/>
<path d="" fill="#FAFAFA" transform="translate(0,0)"/>
<path d="" fill="#E7E7E7" transform="translate(0,0)"/>
<path d="" fill="#F8F8F8" transform="translate(0,0)"/>
<path d="" fill="#FBFBFB" transform="translate(0,0)"/>
<path d="" fill="#FCFCFC" transform="translate(0,0)"/>
<path d="" fill="#FCFCFC" transform="translate(0,0)"/>
<path d="" fill="#F8F8F8" transform="translate(0,0)"/>
<path d="" fill="#FBFBFB" transform="translate(0,0)"/>
<path d="" fill="#F0F0F0" transform="translate(0,0)"/>
<path d="" fill="#E9E9E9" transform="translate(0,0)"/>
<path d="" fill="#FAFAFA" transform="translate(0,0)"/>
<path d="" fill="#F9F9F9" transform="translate(0,0)"/>
<path d="" fill="#F3F3F3" transform="translate(0,0)"/>
<path d="" fill="#F2F2F2" transform="translate(0,0)"/>
<path d="" fill="#FBFBFB" transform="translate(0,0)"/>
<path d="" fill="#E4E4E4" transform="translate(0,0)"/>
<path d="" fill="#D9D9D9" transform="translate(0,0)"/>
<path d="" fill="#EAEAEA" transform="translate(0,0)"/>
<path d="" fill="#F4F4F4" transform="translate(0,0)"/>
<path d="" fill="#D8D8D8" transform="translate(0,0)"/>
<path d="" fill="#E4E4E4" transform="translate(0,0)"/>
<path d="" fill="#E9E9E9" transform="translate(0,0)"/>
<path d="" fill="#F8F8F8" transform="translate(0,0)"/>
<path d="" fill="#DADADA" transform="translate(0,0)"/>
<path d="" fill="#E4E4E4" transform="translate(0,0)"/>
<path d="" fill="#F7F7F7" transform="translate(0,0)"/>
<path d="" fill="#E4E4E4" transform="translate(0,0)"/>
<path d="" fill="#F4F4F4" transform="translate(0,0)"/>
<path d="" fill="#E7E7E7" transform="translate(0,0)"/>
<path d="" fill="#DADADA" transform="translate(0,0)"/>
<path d="" fill="#DADADA" transform="translate(0,0)"/>
<path d="" fill="#DADADA" transform="translate(0,0)"/>
<path d="" fill="#E5E5E5" transform="translate(0,0)"/>
<path d="" fill="#F6F6F6" transform="translate(0,0)"/>
<path d="" fill="#F3F3F3" transform="translate(0,0)"/>
<path d="" fill="#D8D8D8" transform="translate(0,0)"/>
<path d="" fill="#EAEAEA" transform="translate(0,0)"/>
<path d="" fill="#F6F6F6" transform="translate(0,0)"/>
<path d="" fill="#F6F6F6" transform="translate(0,0)"/>
<path d="" fill="#E7E7E7" transform="translate(0,0)"/>
<path d="" fill="#E3E3E3" transform="translate(0,0)"/>
<path d="" fill="#F6F6F6" transform="translate(0,0)"/>
<path d="" fill="#FAFAFA" transform="translate(0,0)"/>
<path d="" fill="#E4E4E4" transform="translate(0,0)"/>
<path d="" fill="#FCFCFC" transform="translate(0,0)"/>
<path d="" fill="#E3E3E3" transform="translate(0,0)"/>
<path d="" fill="#D9D9D9" transform="translate(0,0)"/>
<path d="" fill="#F8F8F8" transform="translate(0,0)"/>
<path d="" fill="#E3E3E3" transform="translate(0,0)"/>
<path d="" fill="#D9D9D9" transform="translate(0,0)"/>
<path d="" fill="#E3E3E3" transform="translate(0,0)"/>
<path d="" fill="#E3E3E3" transform="translate(0,0)"/>
<path d="" fill="#D9D9D9" transform="translate(0,0)"/>
<path d="" fill="#FAFAFA" transform="translate(0,0)"/>
<path d="" fill="#E7E7E7" transform="translate(0,0)"/>
<path d="" fill="#FBFBFB" transform="translate(0,0)"/>
<path d="" fill="#FBFBFB" transform="translate(0,0)"/>
<path d="" fill="#E4E4E4" transform="translate(0,0)"/>
<path d="" fill="#FCFCFC" transform="translate(0,0)"/>
<path d="" fill="#DADADA" transform="translate(0,0)"/>
<path d="" fill="#F7F7F7" transform="translate(0,0)"/>
<path d="" fill="#E3E3E3" transform="translate(0,0)"/>
<path d="" fill="#E3E3E3" transform="translate(0,0)"/>
<path d="" fill="#FAFAFA" transform="translate(0,0)"/>
<path d="" fill="#E6E6E6" transform="translate(0,0)"/>
<path d="" fill="#E6E6E6" transform="translate(0,0)"/>
<path d="" fill="#D9D9D9" transform="translate(0,0)"/>
<path d="" fill="#E6E6E6" transform="translate(0,0)"/>
<path d="" fill="#D5D5D5" transform="translate(0,0)"/>
<path d="" fill="#E4E4E4" transform="translate(0,0)"/>
<path d="" fill="#E6E6E6" transform="translate(0,0)"/>
<path d="" fill="#E6E6E6" transform="translate(0,0)"/>
<path d="" fill="#E0E0E0" transform="translate(0,0)"/>
<path d="" fill="#DBDBDB" transform="translate(0,0)"/>
</svg>
